<mxfile host="app.diagrams.net" modified="2023-07-11T20:43:54.212Z" agent="Mozilla/5.0 (Windows NT 10.0; Win64; x64; rv:109.0) Gecko/20100101 Firefox/114.0" etag="0XEgRXF0TF0S7AdaCU8i" version="21.6.1" type="device">
  <diagram id="C5RBs43oDa-KdzZeNtuy" name="Page-1">
    <mxGraphModel dx="1877" dy="489" grid="1" gridSize="10" guides="1" tooltips="1" connect="1" arrows="1" fold="1" page="1" pageScale="1" pageWidth="827" pageHeight="1169" math="0" shadow="0">
      <root>
        <mxCell id="WIyWlLk6GJQsqaUBKTNV-0" />
        <mxCell id="WIyWlLk6GJQsqaUBKTNV-1" parent="WIyWlLk6GJQsqaUBKTNV-0" />
        <mxCell id="BhRKDA8QinfaHxTQazv0-22" style="edgeStyle=orthogonalEdgeStyle;rounded=0;orthogonalLoop=1;jettySize=auto;html=1;exitX=0;exitY=0.5;exitDx=0;exitDy=0;entryX=0.5;entryY=0;entryDx=0;entryDy=0;endArrow=none;endFill=0;" edge="1" parent="WIyWlLk6GJQsqaUBKTNV-1" source="BhRKDA8QinfaHxTQazv0-0" target="BhRKDA8QinfaHxTQazv0-4">
          <mxGeometry relative="1" as="geometry" />
        </mxCell>
        <mxCell id="BhRKDA8QinfaHxTQazv0-36" value="chiama" style="edgeLabel;html=1;align=center;verticalAlign=middle;resizable=0;points=[];" vertex="1" connectable="0" parent="BhRKDA8QinfaHxTQazv0-22">
          <mxGeometry x="-0.7064" relative="1" as="geometry">
            <mxPoint x="-7" y="-2" as="offset" />
          </mxGeometry>
        </mxCell>
        <mxCell id="BhRKDA8QinfaHxTQazv0-24" style="edgeStyle=orthogonalEdgeStyle;rounded=0;orthogonalLoop=1;jettySize=auto;html=1;exitX=0;exitY=0.75;exitDx=0;exitDy=0;entryX=0.5;entryY=0;entryDx=0;entryDy=0;endArrow=none;endFill=0;" edge="1" parent="WIyWlLk6GJQsqaUBKTNV-1" source="BhRKDA8QinfaHxTQazv0-0" target="BhRKDA8QinfaHxTQazv0-6">
          <mxGeometry relative="1" as="geometry" />
        </mxCell>
        <mxCell id="BhRKDA8QinfaHxTQazv0-26" value="chiama" style="edgeLabel;html=1;align=center;verticalAlign=middle;resizable=0;points=[];" vertex="1" connectable="0" parent="BhRKDA8QinfaHxTQazv0-24">
          <mxGeometry x="-0.3011" relative="1" as="geometry">
            <mxPoint as="offset" />
          </mxGeometry>
        </mxCell>
        <mxCell id="BhRKDA8QinfaHxTQazv0-31" style="edgeStyle=orthogonalEdgeStyle;rounded=0;orthogonalLoop=1;jettySize=auto;html=1;exitX=0.502;exitY=1.005;exitDx=0;exitDy=0;entryX=0.5;entryY=0;entryDx=0;entryDy=0;endArrow=none;endFill=0;exitPerimeter=0;" edge="1" parent="WIyWlLk6GJQsqaUBKTNV-1" source="BhRKDA8QinfaHxTQazv0-1" target="BhRKDA8QinfaHxTQazv0-8">
          <mxGeometry relative="1" as="geometry">
            <mxPoint x="720" y="170" as="sourcePoint" />
          </mxGeometry>
        </mxCell>
        <mxCell id="BhRKDA8QinfaHxTQazv0-34" value="chiama" style="edgeLabel;html=1;align=center;verticalAlign=middle;resizable=0;points=[];" vertex="1" connectable="0" parent="BhRKDA8QinfaHxTQazv0-31">
          <mxGeometry x="0.04" y="1" relative="1" as="geometry">
            <mxPoint x="-1" y="-2" as="offset" />
          </mxGeometry>
        </mxCell>
        <mxCell id="BhRKDA8QinfaHxTQazv0-32" style="edgeStyle=orthogonalEdgeStyle;rounded=0;orthogonalLoop=1;jettySize=auto;html=1;exitX=1;exitY=0.75;exitDx=0;exitDy=0;entryX=0.5;entryY=0;entryDx=0;entryDy=0;endArrow=none;endFill=0;" edge="1" parent="WIyWlLk6GJQsqaUBKTNV-1" source="BhRKDA8QinfaHxTQazv0-0" target="BhRKDA8QinfaHxTQazv0-10">
          <mxGeometry relative="1" as="geometry" />
        </mxCell>
        <mxCell id="BhRKDA8QinfaHxTQazv0-35" value="chiama" style="edgeLabel;html=1;align=center;verticalAlign=middle;resizable=0;points=[];" vertex="1" connectable="0" parent="BhRKDA8QinfaHxTQazv0-32">
          <mxGeometry x="-0.3263" y="-1" relative="1" as="geometry">
            <mxPoint y="-2" as="offset" />
          </mxGeometry>
        </mxCell>
        <mxCell id="BhRKDA8QinfaHxTQazv0-33" style="edgeStyle=orthogonalEdgeStyle;rounded=0;orthogonalLoop=1;jettySize=auto;html=1;exitX=1;exitY=0.5;exitDx=0;exitDy=0;entryX=0.5;entryY=0;entryDx=0;entryDy=0;endArrow=none;endFill=0;" edge="1" parent="WIyWlLk6GJQsqaUBKTNV-1" source="BhRKDA8QinfaHxTQazv0-0" target="BhRKDA8QinfaHxTQazv0-12">
          <mxGeometry relative="1" as="geometry" />
        </mxCell>
        <mxCell id="BhRKDA8QinfaHxTQazv0-38" value="chiama" style="edgeLabel;html=1;align=center;verticalAlign=middle;resizable=0;points=[];" vertex="1" connectable="0" parent="BhRKDA8QinfaHxTQazv0-33">
          <mxGeometry x="-0.7064" y="-1" relative="1" as="geometry">
            <mxPoint x="4" y="-1" as="offset" />
          </mxGeometry>
        </mxCell>
        <mxCell id="BhRKDA8QinfaHxTQazv0-0" value="App" style="swimlane;fontStyle=0;childLayout=stackLayout;horizontal=1;startSize=26;fillColor=none;horizontalStack=0;resizeParent=1;resizeParentMax=0;resizeLast=0;collapsible=1;marginBottom=0;whiteSpace=wrap;html=1;" vertex="1" parent="WIyWlLk6GJQsqaUBKTNV-1">
          <mxGeometry x="600" y="40" width="240" height="110" as="geometry">
            <mxRectangle x="294" y="30" width="60" height="30" as="alternateBounds" />
          </mxGeometry>
        </mxCell>
        <mxCell id="BhRKDA8QinfaHxTQazv0-1" value="&lt;div&gt;- FILE_ARTICLE_SOURCE_PATH: String&lt;br&gt;&lt;/div&gt;&lt;div&gt;- FILE_ARTICLE_STORAGE_PATH: String&lt;/div&gt;- FILE_TERM_STORAGE_PATH: String&lt;br&gt;- NUM_ARTICLES_TO_DOWNLOAD: int&lt;br&gt;- MAX_TERMS_TO_SAVE: int" style="text;strokeColor=none;fillColor=none;align=left;verticalAlign=top;spacingLeft=4;spacingRight=4;overflow=hidden;rotatable=0;points=[[0,0.5],[1,0.5]];portConstraint=eastwest;whiteSpace=wrap;html=1;" vertex="1" parent="BhRKDA8QinfaHxTQazv0-0">
          <mxGeometry y="26" width="240" height="84" as="geometry" />
        </mxCell>
        <mxCell id="BhRKDA8QinfaHxTQazv0-82" style="edgeStyle=orthogonalEdgeStyle;rounded=0;orthogonalLoop=1;jettySize=auto;html=1;exitX=0.5;exitY=1;exitDx=0;exitDy=0;entryX=0.25;entryY=0;entryDx=0;entryDy=0;endArrow=none;endFill=0;dashed=1;dashPattern=8 8;" edge="1" parent="WIyWlLk6GJQsqaUBKTNV-1" source="BhRKDA8QinfaHxTQazv0-4" target="BhRKDA8QinfaHxTQazv0-20">
          <mxGeometry relative="1" as="geometry">
            <Array as="points">
              <mxPoint x="160" y="360" />
              <mxPoint x="240" y="360" />
            </Array>
          </mxGeometry>
        </mxCell>
        <mxCell id="BhRKDA8QinfaHxTQazv0-4" value="TheGuardianAPISource" style="swimlane;fontStyle=0;childLayout=stackLayout;horizontal=1;startSize=26;fillColor=none;horizontalStack=0;resizeParent=1;resizeParentMax=0;resizeLast=0;collapsible=1;marginBottom=0;whiteSpace=wrap;html=1;" vertex="1" parent="WIyWlLk6GJQsqaUBKTNV-1">
          <mxGeometry x="40" y="220" width="240" height="100" as="geometry" />
        </mxCell>
        <mxCell id="BhRKDA8QinfaHxTQazv0-5" value="- apiKey: String&lt;br&gt;- API_KEY_FILE_PATH: String&lt;br&gt;- PAGE_SIZE: int&lt;br&gt;- numArticles: int" style="text;strokeColor=none;fillColor=none;align=left;verticalAlign=top;spacingLeft=4;spacingRight=4;overflow=hidden;rotatable=0;points=[[0,0.5],[1,0.5]];portConstraint=eastwest;whiteSpace=wrap;html=1;" vertex="1" parent="BhRKDA8QinfaHxTQazv0-4">
          <mxGeometry y="26" width="240" height="74" as="geometry" />
        </mxCell>
        <mxCell id="BhRKDA8QinfaHxTQazv0-83" style="edgeStyle=orthogonalEdgeStyle;rounded=0;orthogonalLoop=1;jettySize=auto;html=1;exitX=0.5;exitY=1;exitDx=0;exitDy=0;entryX=0.75;entryY=0;entryDx=0;entryDy=0;endArrow=none;endFill=0;dashed=1;dashPattern=8 8;" edge="1" parent="WIyWlLk6GJQsqaUBKTNV-1" source="BhRKDA8QinfaHxTQazv0-6" target="BhRKDA8QinfaHxTQazv0-20">
          <mxGeometry relative="1" as="geometry">
            <Array as="points">
              <mxPoint x="440" y="360" />
              <mxPoint x="360" y="360" />
            </Array>
          </mxGeometry>
        </mxCell>
        <mxCell id="BhRKDA8QinfaHxTQazv0-6" value="CSVSource" style="swimlane;fontStyle=0;childLayout=stackLayout;horizontal=1;startSize=26;fillColor=none;horizontalStack=0;resizeParent=1;resizeParentMax=0;resizeLast=0;collapsible=1;marginBottom=0;whiteSpace=wrap;html=1;" vertex="1" parent="WIyWlLk6GJQsqaUBKTNV-1">
          <mxGeometry x="320" y="220" width="240" height="50" as="geometry" />
        </mxCell>
        <mxCell id="BhRKDA8QinfaHxTQazv0-7" value="- FILE_NAME: String" style="text;strokeColor=none;fillColor=none;align=left;verticalAlign=top;spacingLeft=4;spacingRight=4;overflow=hidden;rotatable=0;points=[[0,0.5],[1,0.5]];portConstraint=eastwest;whiteSpace=wrap;html=1;" vertex="1" parent="BhRKDA8QinfaHxTQazv0-6">
          <mxGeometry y="26" width="240" height="24" as="geometry" />
        </mxCell>
        <mxCell id="BhRKDA8QinfaHxTQazv0-54" style="edgeStyle=orthogonalEdgeStyle;rounded=0;orthogonalLoop=1;jettySize=auto;html=1;exitX=0.5;exitY=1;exitDx=0;exitDy=0;entryX=0.5;entryY=0;entryDx=0;entryDy=0;endArrow=none;endFill=0;dashed=1;dashPattern=8 8;" edge="1" parent="WIyWlLk6GJQsqaUBKTNV-1" source="BhRKDA8QinfaHxTQazv0-8" target="BhRKDA8QinfaHxTQazv0-14">
          <mxGeometry relative="1" as="geometry" />
        </mxCell>
        <mxCell id="BhRKDA8QinfaHxTQazv0-8" value="FileArticleStorage" style="swimlane;fontStyle=0;childLayout=stackLayout;horizontal=1;startSize=26;fillColor=none;horizontalStack=0;resizeParent=1;resizeParentMax=0;resizeLast=0;collapsible=1;marginBottom=0;whiteSpace=wrap;html=1;" vertex="1" parent="WIyWlLk6GJQsqaUBKTNV-1">
          <mxGeometry x="600" y="220" width="240" height="50" as="geometry" />
        </mxCell>
        <mxCell id="BhRKDA8QinfaHxTQazv0-9" value="- FILE_PATH: String" style="text;strokeColor=none;fillColor=none;align=left;verticalAlign=top;spacingLeft=4;spacingRight=4;overflow=hidden;rotatable=0;points=[[0,0.5],[1,0.5]];portConstraint=eastwest;whiteSpace=wrap;html=1;" vertex="1" parent="BhRKDA8QinfaHxTQazv0-8">
          <mxGeometry y="26" width="240" height="24" as="geometry" />
        </mxCell>
        <mxCell id="BhRKDA8QinfaHxTQazv0-55" style="edgeStyle=orthogonalEdgeStyle;rounded=0;orthogonalLoop=1;jettySize=auto;html=1;exitX=0.5;exitY=1;exitDx=0;exitDy=0;entryX=0.5;entryY=0;entryDx=0;entryDy=0;endArrow=none;endFill=0;dashed=1;dashPattern=8 8;" edge="1" parent="WIyWlLk6GJQsqaUBKTNV-1" source="BhRKDA8QinfaHxTQazv0-10" target="BhRKDA8QinfaHxTQazv0-18">
          <mxGeometry relative="1" as="geometry">
            <Array as="points">
              <mxPoint x="1000" y="320" />
              <mxPoint x="1000" y="320" />
            </Array>
          </mxGeometry>
        </mxCell>
        <mxCell id="BhRKDA8QinfaHxTQazv0-10" value="FileTermStorage" style="swimlane;fontStyle=0;childLayout=stackLayout;horizontal=1;startSize=26;fillColor=none;horizontalStack=0;resizeParent=1;resizeParentMax=0;resizeLast=0;collapsible=1;marginBottom=0;whiteSpace=wrap;html=1;" vertex="1" parent="WIyWlLk6GJQsqaUBKTNV-1">
          <mxGeometry x="880" y="220" width="240" height="50" as="geometry" />
        </mxCell>
        <mxCell id="BhRKDA8QinfaHxTQazv0-11" value="- FILE_PATH: String" style="text;strokeColor=none;fillColor=none;align=left;verticalAlign=top;spacingLeft=4;spacingRight=4;overflow=hidden;rotatable=0;points=[[0,0.5],[1,0.5]];portConstraint=eastwest;whiteSpace=wrap;html=1;" vertex="1" parent="BhRKDA8QinfaHxTQazv0-10">
          <mxGeometry y="26" width="240" height="24" as="geometry" />
        </mxCell>
        <mxCell id="BhRKDA8QinfaHxTQazv0-81" style="edgeStyle=orthogonalEdgeStyle;rounded=0;orthogonalLoop=1;jettySize=auto;html=1;exitX=0.25;exitY=1;exitDx=0;exitDy=0;entryX=1.002;entryY=0.297;entryDx=0;entryDy=0;entryPerimeter=0;endArrow=none;endFill=0;" edge="1" parent="WIyWlLk6GJQsqaUBKTNV-1" source="BhRKDA8QinfaHxTQazv0-12" target="BhRKDA8QinfaHxTQazv0-30">
          <mxGeometry relative="1" as="geometry" />
        </mxCell>
        <mxCell id="BhRKDA8QinfaHxTQazv0-88" value="serializza" style="edgeLabel;html=1;align=center;verticalAlign=middle;resizable=0;points=[];" vertex="1" connectable="0" parent="BhRKDA8QinfaHxTQazv0-81">
          <mxGeometry x="-0.339" relative="1" as="geometry">
            <mxPoint as="offset" />
          </mxGeometry>
        </mxCell>
        <mxCell id="BhRKDA8QinfaHxTQazv0-85" style="edgeStyle=orthogonalEdgeStyle;rounded=0;orthogonalLoop=1;jettySize=auto;html=1;exitX=0.5;exitY=1;exitDx=0;exitDy=0;entryX=0.75;entryY=1;entryDx=0;entryDy=0;endArrow=none;endFill=0;" edge="1" parent="WIyWlLk6GJQsqaUBKTNV-1" source="BhRKDA8QinfaHxTQazv0-12" target="BhRKDA8QinfaHxTQazv0-14">
          <mxGeometry relative="1" as="geometry">
            <Array as="points">
              <mxPoint x="1280" y="620" />
              <mxPoint x="780" y="620" />
            </Array>
          </mxGeometry>
        </mxCell>
        <mxCell id="BhRKDA8QinfaHxTQazv0-87" value="deserializza" style="edgeLabel;html=1;align=center;verticalAlign=middle;resizable=0;points=[];" vertex="1" connectable="0" parent="BhRKDA8QinfaHxTQazv0-85">
          <mxGeometry x="0.071" y="3" relative="1" as="geometry">
            <mxPoint y="-4" as="offset" />
          </mxGeometry>
        </mxCell>
        <mxCell id="BhRKDA8QinfaHxTQazv0-12" value="TermExtractor" style="swimlane;fontStyle=0;childLayout=stackLayout;horizontal=1;startSize=26;fillColor=none;horizontalStack=0;resizeParent=1;resizeParentMax=0;resizeLast=0;collapsible=1;marginBottom=0;whiteSpace=wrap;html=1;" vertex="1" parent="WIyWlLk6GJQsqaUBKTNV-1">
          <mxGeometry x="1160" y="220" width="240" height="80" as="geometry" />
        </mxCell>
        <mxCell id="BhRKDA8QinfaHxTQazv0-13" value="- MAX_TERMS_TO_SAVE: int&lt;br&gt;- articleStorage: ArticleStorage&lt;br&gt;- termStorage: TermStorage" style="text;strokeColor=none;fillColor=none;align=left;verticalAlign=top;spacingLeft=4;spacingRight=4;overflow=hidden;rotatable=0;points=[[0,0.5],[1,0.5]];portConstraint=eastwest;whiteSpace=wrap;html=1;" vertex="1" parent="BhRKDA8QinfaHxTQazv0-12">
          <mxGeometry y="26" width="240" height="54" as="geometry" />
        </mxCell>
        <mxCell id="BhRKDA8QinfaHxTQazv0-14" value="ArticleStorage" style="swimlane;fontStyle=0;childLayout=stackLayout;horizontal=1;startSize=26;fillColor=none;horizontalStack=0;resizeParent=1;resizeParentMax=0;resizeLast=0;collapsible=1;marginBottom=0;whiteSpace=wrap;html=1;" vertex="1" parent="WIyWlLk6GJQsqaUBKTNV-1">
          <mxGeometry x="600" y="340" width="240" height="30" as="geometry" />
        </mxCell>
        <mxCell id="BhRKDA8QinfaHxTQazv0-18" value="TermStorage" style="swimlane;fontStyle=0;childLayout=stackLayout;horizontal=1;startSize=26;fillColor=none;horizontalStack=0;resizeParent=1;resizeParentMax=0;resizeLast=0;collapsible=1;marginBottom=0;whiteSpace=wrap;html=1;" vertex="1" parent="WIyWlLk6GJQsqaUBKTNV-1">
          <mxGeometry x="880" y="340" width="240" height="30" as="geometry" />
        </mxCell>
        <mxCell id="BhRKDA8QinfaHxTQazv0-65" style="edgeStyle=orthogonalEdgeStyle;rounded=0;orthogonalLoop=1;jettySize=auto;html=1;exitX=0.5;exitY=1;exitDx=0;exitDy=0;entryX=0.5;entryY=0;entryDx=0;entryDy=0;endArrow=none;endFill=0;" edge="1" parent="WIyWlLk6GJQsqaUBKTNV-1" source="BhRKDA8QinfaHxTQazv0-20" target="BhRKDA8QinfaHxTQazv0-27">
          <mxGeometry relative="1" as="geometry" />
        </mxCell>
        <mxCell id="BhRKDA8QinfaHxTQazv0-66" value="Serializza" style="edgeLabel;html=1;align=center;verticalAlign=middle;resizable=0;points=[];" vertex="1" connectable="0" parent="BhRKDA8QinfaHxTQazv0-65">
          <mxGeometry x="0.1083" relative="1" as="geometry">
            <mxPoint y="-4" as="offset" />
          </mxGeometry>
        </mxCell>
        <mxCell id="BhRKDA8QinfaHxTQazv0-20" value="Source" style="swimlane;fontStyle=0;childLayout=stackLayout;horizontal=1;startSize=26;fillColor=none;horizontalStack=0;resizeParent=1;resizeParentMax=0;resizeLast=0;collapsible=1;marginBottom=0;whiteSpace=wrap;html=1;" vertex="1" parent="WIyWlLk6GJQsqaUBKTNV-1">
          <mxGeometry x="180" y="400" width="240" height="70" as="geometry" />
        </mxCell>
        <mxCell id="BhRKDA8QinfaHxTQazv0-21" value="# articles: ArrayList&amp;lt;Article&amp;gt;&lt;br&gt;# articleStorage: ArticleStorage" style="text;strokeColor=none;fillColor=none;align=left;verticalAlign=top;spacingLeft=4;spacingRight=4;overflow=hidden;rotatable=0;points=[[0,0.5],[1,0.5]];portConstraint=eastwest;whiteSpace=wrap;html=1;" vertex="1" parent="BhRKDA8QinfaHxTQazv0-20">
          <mxGeometry y="26" width="240" height="44" as="geometry" />
        </mxCell>
        <mxCell id="BhRKDA8QinfaHxTQazv0-69" style="edgeStyle=orthogonalEdgeStyle;rounded=0;orthogonalLoop=1;jettySize=auto;html=1;exitX=1.001;exitY=0.348;exitDx=0;exitDy=0;entryX=0.5;entryY=1;entryDx=0;entryDy=0;endArrow=none;endFill=0;exitPerimeter=0;" edge="1" parent="WIyWlLk6GJQsqaUBKTNV-1" source="BhRKDA8QinfaHxTQazv0-28" target="BhRKDA8QinfaHxTQazv0-14">
          <mxGeometry relative="1" as="geometry" />
        </mxCell>
        <mxCell id="BhRKDA8QinfaHxTQazv0-70" value="salva" style="edgeLabel;html=1;align=center;verticalAlign=middle;resizable=0;points=[];" vertex="1" connectable="0" parent="BhRKDA8QinfaHxTQazv0-69">
          <mxGeometry x="-0.1908" y="1" relative="1" as="geometry">
            <mxPoint x="-73" as="offset" />
          </mxGeometry>
        </mxCell>
        <mxCell id="BhRKDA8QinfaHxTQazv0-27" value="Article" style="swimlane;fontStyle=0;childLayout=stackLayout;horizontal=1;startSize=26;fillColor=none;horizontalStack=0;resizeParent=1;resizeParentMax=0;resizeLast=0;collapsible=1;marginBottom=0;whiteSpace=wrap;html=1;" vertex="1" parent="WIyWlLk6GJQsqaUBKTNV-1">
          <mxGeometry x="180" y="575" width="240" height="80" as="geometry" />
        </mxCell>
        <mxCell id="BhRKDA8QinfaHxTQazv0-28" value="- id: String&lt;br&gt;- title: String&lt;br&gt;- body: String" style="text;strokeColor=none;fillColor=none;align=left;verticalAlign=top;spacingLeft=4;spacingRight=4;overflow=hidden;rotatable=0;points=[[0,0.5],[1,0.5]];portConstraint=eastwest;whiteSpace=wrap;html=1;" vertex="1" parent="BhRKDA8QinfaHxTQazv0-27">
          <mxGeometry y="26" width="240" height="54" as="geometry" />
        </mxCell>
        <mxCell id="BhRKDA8QinfaHxTQazv0-91" style="edgeStyle=orthogonalEdgeStyle;rounded=0;orthogonalLoop=1;jettySize=auto;html=1;exitX=0.5;exitY=0;exitDx=0;exitDy=0;entryX=0.5;entryY=1;entryDx=0;entryDy=0;endArrow=none;endFill=0;" edge="1" parent="WIyWlLk6GJQsqaUBKTNV-1" source="BhRKDA8QinfaHxTQazv0-29" target="BhRKDA8QinfaHxTQazv0-18">
          <mxGeometry relative="1" as="geometry" />
        </mxCell>
        <mxCell id="BhRKDA8QinfaHxTQazv0-92" value="salva" style="edgeLabel;html=1;align=center;verticalAlign=middle;resizable=0;points=[];" vertex="1" connectable="0" parent="BhRKDA8QinfaHxTQazv0-91">
          <mxGeometry x="-0.02" y="-1" relative="1" as="geometry">
            <mxPoint as="offset" />
          </mxGeometry>
        </mxCell>
        <mxCell id="BhRKDA8QinfaHxTQazv0-29" value="Term" style="swimlane;fontStyle=0;childLayout=stackLayout;horizontal=1;startSize=26;fillColor=none;horizontalStack=0;resizeParent=1;resizeParentMax=0;resizeLast=0;collapsible=1;marginBottom=0;whiteSpace=wrap;html=1;" vertex="1" parent="WIyWlLk6GJQsqaUBKTNV-1">
          <mxGeometry x="880" y="470" width="240" height="70" as="geometry" />
        </mxCell>
        <mxCell id="BhRKDA8QinfaHxTQazv0-30" value="&lt;div&gt;- term: String&lt;/div&gt;&lt;div&gt;- weight: int&lt;br&gt;&lt;/div&gt;" style="text;strokeColor=none;fillColor=none;align=left;verticalAlign=top;spacingLeft=4;spacingRight=4;overflow=hidden;rotatable=0;points=[[0,0.5],[1,0.5]];portConstraint=eastwest;whiteSpace=wrap;html=1;" vertex="1" parent="BhRKDA8QinfaHxTQazv0-29">
          <mxGeometry y="26" width="240" height="44" as="geometry" />
        </mxCell>
        <mxCell id="BhRKDA8QinfaHxTQazv0-39" value="1" style="text;html=1;align=center;verticalAlign=middle;resizable=0;points=[];autosize=1;strokeColor=none;fillColor=none;" vertex="1" parent="WIyWlLk6GJQsqaUBKTNV-1">
          <mxGeometry x="570" y="68" width="30" height="30" as="geometry" />
        </mxCell>
        <mxCell id="BhRKDA8QinfaHxTQazv0-40" value="1...*" style="text;html=1;align=center;verticalAlign=middle;resizable=0;points=[];autosize=1;strokeColor=none;fillColor=none;" vertex="1" parent="WIyWlLk6GJQsqaUBKTNV-1">
          <mxGeometry x="65" y="190" width="40" height="30" as="geometry" />
        </mxCell>
        <mxCell id="BhRKDA8QinfaHxTQazv0-41" value="1" style="text;html=1;align=center;verticalAlign=middle;resizable=0;points=[];autosize=1;strokeColor=none;fillColor=none;" vertex="1" parent="WIyWlLk6GJQsqaUBKTNV-1">
          <mxGeometry x="840" y="68" width="30" height="30" as="geometry" />
        </mxCell>
        <mxCell id="BhRKDA8QinfaHxTQazv0-43" value="1" style="text;html=1;align=center;verticalAlign=middle;resizable=0;points=[];autosize=1;strokeColor=none;fillColor=none;" vertex="1" parent="WIyWlLk6GJQsqaUBKTNV-1">
          <mxGeometry x="840" y="120" width="30" height="30" as="geometry" />
        </mxCell>
        <mxCell id="BhRKDA8QinfaHxTQazv0-48" value="1" style="text;html=1;align=center;verticalAlign=middle;resizable=0;points=[];autosize=1;strokeColor=none;fillColor=none;" vertex="1" parent="WIyWlLk6GJQsqaUBKTNV-1">
          <mxGeometry x="570" y="120" width="30" height="30" as="geometry" />
        </mxCell>
        <mxCell id="BhRKDA8QinfaHxTQazv0-49" value="1" style="text;html=1;align=center;verticalAlign=middle;resizable=0;points=[];autosize=1;strokeColor=none;fillColor=none;" vertex="1" parent="WIyWlLk6GJQsqaUBKTNV-1">
          <mxGeometry x="410" y="190" width="30" height="30" as="geometry" />
        </mxCell>
        <mxCell id="BhRKDA8QinfaHxTQazv0-50" value="1" style="text;html=1;align=center;verticalAlign=middle;resizable=0;points=[];autosize=1;strokeColor=none;fillColor=none;" vertex="1" parent="WIyWlLk6GJQsqaUBKTNV-1">
          <mxGeometry x="690" y="150" width="30" height="30" as="geometry" />
        </mxCell>
        <mxCell id="BhRKDA8QinfaHxTQazv0-51" value="1" style="text;html=1;align=center;verticalAlign=middle;resizable=0;points=[];autosize=1;strokeColor=none;fillColor=none;" vertex="1" parent="WIyWlLk6GJQsqaUBKTNV-1">
          <mxGeometry x="690" y="190" width="30" height="30" as="geometry" />
        </mxCell>
        <mxCell id="BhRKDA8QinfaHxTQazv0-56" value="1" style="text;html=1;align=center;verticalAlign=middle;resizable=0;points=[];autosize=1;strokeColor=none;fillColor=none;" vertex="1" parent="WIyWlLk6GJQsqaUBKTNV-1">
          <mxGeometry x="970" y="190" width="30" height="30" as="geometry" />
        </mxCell>
        <mxCell id="BhRKDA8QinfaHxTQazv0-57" value="1" style="text;html=1;align=center;verticalAlign=middle;resizable=0;points=[];autosize=1;strokeColor=none;fillColor=none;" vertex="1" parent="WIyWlLk6GJQsqaUBKTNV-1">
          <mxGeometry x="1278.62" y="190" width="30" height="30" as="geometry" />
        </mxCell>
        <mxCell id="BhRKDA8QinfaHxTQazv0-62" style="edgeStyle=orthogonalEdgeStyle;rounded=0;orthogonalLoop=1;jettySize=auto;html=1;exitX=0.5;exitY=0;exitDx=0;exitDy=0;entryX=0.25;entryY=0;entryDx=0;entryDy=0;endArrow=none;endFill=0;" edge="1" parent="WIyWlLk6GJQsqaUBKTNV-1" source="BhRKDA8QinfaHxTQazv0-60" target="BhRKDA8QinfaHxTQazv0-4">
          <mxGeometry relative="1" as="geometry">
            <Array as="points">
              <mxPoint x="-120" y="90" />
              <mxPoint x="100" y="90" />
            </Array>
          </mxGeometry>
        </mxCell>
        <mxCell id="BhRKDA8QinfaHxTQazv0-63" value="response" style="edgeLabel;html=1;align=center;verticalAlign=middle;resizable=0;points=[];" vertex="1" connectable="0" parent="BhRKDA8QinfaHxTQazv0-62">
          <mxGeometry x="0.028" y="-1" relative="1" as="geometry">
            <mxPoint x="-5" y="-2" as="offset" />
          </mxGeometry>
        </mxCell>
        <mxCell id="BhRKDA8QinfaHxTQazv0-60" value="GuardianContentAPI" style="swimlane;fontStyle=0;childLayout=stackLayout;horizontal=1;startSize=26;fillColor=none;horizontalStack=0;resizeParent=1;resizeParentMax=0;resizeLast=0;collapsible=1;marginBottom=0;whiteSpace=wrap;html=1;" vertex="1" parent="WIyWlLk6GJQsqaUBKTNV-1">
          <mxGeometry x="-240" y="220" width="240" height="100" as="geometry" />
        </mxCell>
        <mxCell id="BhRKDA8QinfaHxTQazv0-61" value="- apiKey: String&lt;br&gt;- API_KEY_FILE_PATH: String&lt;br&gt;- PAGE_SIZE: int&lt;br&gt;- numArticles: int" style="text;strokeColor=none;fillColor=none;align=left;verticalAlign=top;spacingLeft=4;spacingRight=4;overflow=hidden;rotatable=0;points=[[0,0.5],[1,0.5]];portConstraint=eastwest;whiteSpace=wrap;html=1;" vertex="1" parent="BhRKDA8QinfaHxTQazv0-60">
          <mxGeometry y="26" width="240" height="74" as="geometry" />
        </mxCell>
        <mxCell id="BhRKDA8QinfaHxTQazv0-64" value="1" style="text;html=1;align=center;verticalAlign=middle;resizable=0;points=[];autosize=1;strokeColor=none;fillColor=none;" vertex="1" parent="WIyWlLk6GJQsqaUBKTNV-1">
          <mxGeometry x="-150" y="190" width="30" height="30" as="geometry" />
        </mxCell>
        <mxCell id="BhRKDA8QinfaHxTQazv0-67" value="1...*" style="text;html=1;align=center;verticalAlign=middle;resizable=0;points=[];autosize=1;strokeColor=none;fillColor=none;" vertex="1" parent="WIyWlLk6GJQsqaUBKTNV-1">
          <mxGeometry x="300" y="470" width="40" height="30" as="geometry" />
        </mxCell>
        <mxCell id="BhRKDA8QinfaHxTQazv0-68" value="1...*" style="text;html=1;align=center;verticalAlign=middle;resizable=0;points=[];autosize=1;strokeColor=none;fillColor=none;" vertex="1" parent="WIyWlLk6GJQsqaUBKTNV-1">
          <mxGeometry x="300" y="545" width="40" height="30" as="geometry" />
        </mxCell>
        <mxCell id="BhRKDA8QinfaHxTQazv0-71" value="1" style="text;html=1;align=center;verticalAlign=middle;resizable=0;points=[];autosize=1;strokeColor=none;fillColor=none;" vertex="1" parent="WIyWlLk6GJQsqaUBKTNV-1">
          <mxGeometry x="414" y="590" width="30" height="30" as="geometry" />
        </mxCell>
        <mxCell id="BhRKDA8QinfaHxTQazv0-74" value="1" style="text;html=1;align=center;verticalAlign=middle;resizable=0;points=[];autosize=1;strokeColor=none;fillColor=none;" vertex="1" parent="WIyWlLk6GJQsqaUBKTNV-1">
          <mxGeometry x="690" y="370" width="30" height="30" as="geometry" />
        </mxCell>
        <mxCell id="BhRKDA8QinfaHxTQazv0-80" value="1...*" style="text;html=1;align=center;verticalAlign=middle;resizable=0;points=[];autosize=1;strokeColor=none;fillColor=none;" vertex="1" parent="WIyWlLk6GJQsqaUBKTNV-1">
          <mxGeometry x="1273.62" y="300" width="40" height="30" as="geometry" />
        </mxCell>
        <mxCell id="BhRKDA8QinfaHxTQazv0-86" value="1...*" style="text;html=1;align=center;verticalAlign=middle;resizable=0;points=[];autosize=1;strokeColor=none;fillColor=none;" vertex="1" parent="WIyWlLk6GJQsqaUBKTNV-1">
          <mxGeometry x="779.9999999999999" y="370" width="40" height="30" as="geometry" />
        </mxCell>
        <mxCell id="BhRKDA8QinfaHxTQazv0-89" value="1...*" style="text;html=1;align=center;verticalAlign=middle;resizable=0;points=[];autosize=1;strokeColor=none;fillColor=none;" vertex="1" parent="WIyWlLk6GJQsqaUBKTNV-1">
          <mxGeometry x="1180" y="300" width="40" height="30" as="geometry" />
        </mxCell>
        <mxCell id="BhRKDA8QinfaHxTQazv0-90" value="1...*" style="text;html=1;align=center;verticalAlign=middle;resizable=0;points=[];autosize=1;strokeColor=none;fillColor=none;" vertex="1" parent="WIyWlLk6GJQsqaUBKTNV-1">
          <mxGeometry x="1120" y="480" width="40" height="30" as="geometry" />
        </mxCell>
        <mxCell id="BhRKDA8QinfaHxTQazv0-93" value="1" style="text;html=1;align=center;verticalAlign=middle;resizable=0;points=[];autosize=1;strokeColor=none;fillColor=none;" vertex="1" parent="WIyWlLk6GJQsqaUBKTNV-1">
          <mxGeometry x="1000" y="370" width="30" height="30" as="geometry" />
        </mxCell>
        <mxCell id="BhRKDA8QinfaHxTQazv0-94" value="1" style="text;html=1;align=center;verticalAlign=middle;resizable=0;points=[];autosize=1;strokeColor=none;fillColor=none;" vertex="1" parent="WIyWlLk6GJQsqaUBKTNV-1">
          <mxGeometry x="1000" y="440" width="30" height="30" as="geometry" />
        </mxCell>
        <mxCell id="BhRKDA8QinfaHxTQazv0-100" value="1" style="text;html=1;align=center;verticalAlign=middle;resizable=0;points=[];autosize=1;strokeColor=none;fillColor=none;" vertex="1" parent="WIyWlLk6GJQsqaUBKTNV-1">
          <mxGeometry x="130" y="190" width="30" height="30" as="geometry" />
        </mxCell>
      </root>
    </mxGraphModel>
  </diagram>
</mxfile>
